<svg width="10" height="10" viewBox="0 0 10 10" fill="none" xmlns="http://www.w3.org/2000/svg">
<path d="M5 1.01562C4.21197 1.01562 3.44163 1.2493 2.7864 1.68711C2.13117 2.12492 1.62049 2.7472 1.31892 3.47525C1.01735 4.20329 0.938447 5.00442 1.09219 5.77731C1.24592 6.55021 1.6254 7.26015 2.18262 7.81738C2.73985 8.3746 3.4498 8.75408 4.22269 8.90782C4.99558 9.06155 5.79671 8.98265 6.52476 8.68108C7.2528 8.37951 7.87508 7.86883 8.31289 7.2136C8.7507 6.55837 8.98438 5.78803 8.98438 5C8.98314 3.94366 8.56296 2.93094 7.81601 2.18399C7.06906 1.43705 6.05634 1.01687 5 1.01562ZM5 8.51562C4.30468 8.51562 3.62497 8.30944 3.04682 7.92313C2.46868 7.53683 2.01808 6.98777 1.75199 6.34537C1.4859 5.70297 1.41628 4.9961 1.55193 4.31414C1.68758 3.63217 2.02241 3.00575 2.51408 2.51408C3.00575 2.02241 3.63217 1.68758 4.31414 1.55193C4.9961 1.41628 5.70298 1.4859 6.34537 1.75199C6.98777 2.01808 7.53683 2.46868 7.92314 3.04682C8.30944 3.62496 8.51563 4.30467 8.51563 5C8.51459 5.93208 8.14387 6.8257 7.48478 7.48478C6.8257 8.14386 5.93209 8.51459 5 8.51562ZM3.67188 5C3.67188 5.27875 3.75958 5.55043 3.92257 5.77657C4.08556 6.0027 4.31557 6.17182 4.58001 6.25997C4.84446 6.34812 5.12993 6.35083 5.39601 6.26771C5.66208 6.1846 5.89525 6.01987 6.0625 5.79687C6.09985 5.74715 6.15542 5.71429 6.21699 5.70554C6.27857 5.69678 6.34109 5.71285 6.39082 5.7502C6.44055 5.78754 6.4734 5.84312 6.48216 5.90469C6.49091 5.96626 6.47485 6.02879 6.4375 6.07852C6.21116 6.38013 5.89568 6.60289 5.53571 6.71525C5.17575 6.82761 4.78956 6.82388 4.43184 6.70459C4.07412 6.58529 3.76299 6.35648 3.54252 6.05055C3.32205 5.74462 3.20342 5.37709 3.20342 5C3.20342 4.62291 3.32205 4.25537 3.54252 3.94945C3.76299 3.64352 4.07412 3.41471 4.43184 3.29541C4.78956 3.17612 5.17575 3.17239 5.53571 3.28475C5.89568 3.39711 6.21116 3.61987 6.4375 3.92148C6.47485 3.97121 6.49091 4.03374 6.48216 4.09531C6.4734 4.15688 6.44055 4.21246 6.39082 4.2498C6.34109 4.28715 6.27857 4.30322 6.21699 4.29446C6.15542 4.28571 6.09985 4.25285 6.0625 4.20312C5.89525 3.98012 5.66208 3.8154 5.39601 3.73229C5.12993 3.64917 4.84446 3.65188 4.58001 3.74003C4.31557 3.82818 4.08556 3.9973 3.92257 4.22343C3.75958 4.44957 3.67188 4.72125 3.67188 5Z" fill="#606060"/>
</svg>
