<svg width="44" height="43" viewBox="0 0 44 43" fill="none" xmlns="http://www.w3.org/2000/svg">
<path fill-rule="evenodd" clip-rule="evenodd" d="M23.8931 6.80444L43.9999 23.7865H37.6436V39.4333H10.4791V23.7865H4.00244L23.8931 6.80444ZM23.896 8.1845L6.94432 22.6573H11.4135V38.3041H36.7092V22.6573H41.0319L23.896 8.1845Z" fill="#606060"/>
<path fill-rule="evenodd" clip-rule="evenodd" d="M0.396492 23.6172L26.3019 2.50207L26.4512 2.76953L0.545782 23.8846L0.396492 23.6172Z" fill="#606060"/>
<path fill-rule="evenodd" clip-rule="evenodd" d="M23.8946 42.9821L23.8946 0.0744628L24.1616 0.0744629L24.1616 42.9821L23.8946 42.9821Z" fill="#606060"/>
<path fill-rule="evenodd" clip-rule="evenodd" d="M0.000666618 26.8515H9.34473V27.1741H0.000666618V26.8515Z" fill="#606060"/>
<path fill-rule="evenodd" clip-rule="evenodd" d="M3.27088 19.4311L3.27088 42.9824H3.00391L3.00391 19.4311H3.27088Z" fill="#606060"/>
<path fill-rule="evenodd" clip-rule="evenodd" d="M7.07508 25.2384L7.07508 42.9822H6.80811L6.80811 25.2384H7.07508Z" fill="#606060"/>
<path fill-rule="evenodd" clip-rule="evenodd" d="M0.00132942 41.2873L26.165 41.4511L26.1637 41.7737L-5.72205e-05 41.6099L0.00132942 41.2873Z" fill="#606060"/>
<path d="M25.0962 36.8524V10.7207L38.3114 21.9311H35.3888V36.8524H25.0962Z" fill="#FC531C"/>
</svg>
