<svg width="81" height="78" viewBox="0 0 81 78" fill="none" xmlns="http://www.w3.org/2000/svg">
<path fill-rule="evenodd" clip-rule="evenodd" d="M43.4568 12.2341L80.0266 43.1048H68.466V71.5483H19.0599V43.1048H7.28027L43.4568 12.2341ZM43.4621 14.7429L12.6309 41.0522H20.7594V69.4956H66.7665V41.0522H74.6284L43.4621 14.7429Z" fill="#606060"/>
<path fill-rule="evenodd" clip-rule="evenodd" d="M0.721841 42.797L47.8379 4.41297L48.1094 4.89917L0.993365 43.2832L0.721841 42.797Z" fill="#606060"/>
<path fill-rule="evenodd" clip-rule="evenodd" d="M43.4588 77.9995L43.4588 -1.26262e-07L43.9443 0L43.9443 77.9995L43.4588 77.9995Z" fill="#606060"/>
<path fill-rule="evenodd" clip-rule="evenodd" d="M0.0013738 48.6765H16.9961V49.2629H0.0013738V48.6765Z" fill="#606060"/>
<path fill-rule="evenodd" clip-rule="evenodd" d="M5.94943 35.1872L5.94943 78H5.46387L5.46387 35.1872H5.94943Z" fill="#606060"/>
<path fill-rule="evenodd" clip-rule="evenodd" d="M12.8694 45.7443L12.8694 77.9998H12.3838L12.3838 45.7443H12.8694Z" fill="#606060"/>
<path fill-rule="evenodd" clip-rule="evenodd" d="M0.00205026 74.9182L47.5879 75.216L47.5854 75.8025L-0.000468841 75.5047L0.00205026 74.9182Z" fill="#606060"/>
<path d="M45.6445 66.8565V19.353L69.6799 39.7317H64.3644V66.8565H45.6445Z" fill="#FC531C"/>
</svg>
