<svg width="13" height="13" viewBox="0 0 13 13" fill="none" xmlns="http://www.w3.org/2000/svg">
<path d="M6.5 1.32031C5.47556 1.32031 4.47412 1.6241 3.62232 2.19325C2.77053 2.7624 2.10663 3.57136 1.71459 4.51782C1.32256 5.46428 1.21998 6.50575 1.41984 7.51051C1.6197 8.51527 2.11302 9.4382 2.83741 10.1626C3.5618 10.887 4.48473 11.3803 5.48949 11.5802C6.49426 11.78 7.53572 11.6774 8.48218 11.2854C9.42865 10.8934 10.2376 10.2295 10.8068 9.37768C11.3759 8.52588 11.6797 7.52444 11.6797 6.5C11.6781 5.12676 11.1318 3.81022 10.1608 2.83919C9.18978 1.86816 7.87325 1.32193 6.5 1.32031ZM6.5 11.0703C5.59608 11.0703 4.71246 10.8023 3.96087 10.3001C3.20929 9.79788 2.6235 9.0841 2.27758 8.24898C1.93167 7.41387 1.84116 6.49493 2.01751 5.60838C2.19385 4.72182 2.62913 3.90747 3.2683 3.2683C3.90747 2.62913 4.72182 2.19385 5.60838 2.0175C6.49493 1.84116 7.41387 1.93167 8.24898 2.27758C9.0841 2.6235 9.79789 3.20929 10.3001 3.96087C10.8023 4.71245 11.0703 5.59608 11.0703 6.5C11.069 7.71171 10.587 8.87341 9.73022 9.73021C8.87341 10.587 7.71171 11.069 6.5 11.0703ZM4.77344 6.5C4.77344 6.86237 4.88746 7.21556 5.09934 7.50954C5.31123 7.80351 5.61024 8.02337 5.95401 8.13796C6.29779 8.25255 6.66891 8.25608 7.01481 8.14803C7.3607 8.03998 7.66383 7.82584 7.88125 7.53594C7.9298 7.47129 8.00205 7.42858 8.08209 7.4172C8.16214 7.40582 8.24342 7.4267 8.30807 7.47525C8.37271 7.52381 8.41543 7.59605 8.42681 7.67609C8.43819 7.75614 8.4173 7.83742 8.36875 7.90207C8.07451 8.29416 7.66438 8.58375 7.19643 8.72983C6.72848 8.8759 6.22643 8.87105 5.76139 8.71596C5.29635 8.56088 4.89189 8.26342 4.60528 7.86572C4.31867 7.46801 4.16445 6.99022 4.16445 6.5C4.16445 6.00978 4.31867 5.53199 4.60528 5.13428C4.89189 4.73658 5.29635 4.43912 5.76139 4.28404C6.22643 4.12895 6.72848 4.1241 7.19643 4.27017C7.66438 4.41625 8.07451 4.70583 8.36875 5.09793C8.4173 5.16258 8.43819 5.24386 8.42681 5.32391C8.41543 5.40395 8.37271 5.47619 8.30807 5.52475C8.24342 5.5733 8.16214 5.59418 8.08209 5.5828C8.00205 5.57142 7.9298 5.52871 7.88125 5.46406C7.66383 5.17416 7.3607 4.96002 7.01481 4.85197C6.66891 4.74392 6.29779 4.74745 5.95401 4.86204C5.61024 4.97663 5.31123 5.19649 5.09934 5.49046C4.88746 5.78443 4.77344 6.13762 4.77344 6.5Z" fill="#606060"/>
</svg>
