<svg width="44" height="43" viewBox="0 0 44 43" fill="none" xmlns="http://www.w3.org/2000/svg">
<path fill-rule="evenodd" clip-rule="evenodd" d="M23.8936 6.8042L44.0004 23.7862H37.6441V39.433H10.4796V23.7862H4.00293L23.8936 6.8042ZM23.8965 8.18426L6.94481 22.6571H11.414V38.3039H36.7097V22.6571H41.0324L23.8965 8.18426Z" fill="white"/>
<path fill-rule="evenodd" clip-rule="evenodd" d="M0.396491 23.6167L26.3019 2.50158L26.4512 2.76904L0.545781 23.8841L0.396491 23.6167Z" fill="white"/>
<path fill-rule="evenodd" clip-rule="evenodd" d="M23.8942 42.9819L23.8942 0.0742187L24.1611 0.0742188L24.1611 42.9819L23.8942 42.9819Z" fill="white"/>
<path fill-rule="evenodd" clip-rule="evenodd" d="M0.000666738 26.8512H9.34473V27.1738H0.000666738V26.8512Z" fill="white"/>
<path fill-rule="evenodd" clip-rule="evenodd" d="M3.27088 19.4306L3.27088 42.9819H3.00391L3.00391 19.4306H3.27088Z" fill="white"/>
<path fill-rule="evenodd" clip-rule="evenodd" d="M7.07557 25.2382L7.07557 42.9819H6.80859L6.80859 25.2382H7.07557Z" fill="white"/>
<path fill-rule="evenodd" clip-rule="evenodd" d="M0.00132848 41.287L26.165 41.4508L26.1637 41.7734L-5.65745e-05 41.6096L0.00132848 41.287Z" fill="white"/>
<path d="M25.0957 36.8519V10.7202L38.3109 21.9306H35.3883V36.8519H25.0957Z" fill="#FC531C"/>
</svg>
