<svg width="544" height="25" viewBox="0 0 544 25" fill="none" xmlns="http://www.w3.org/2000/svg">
<path d="M2.56336 21.8833C-4.63663 -4.78337 13.3634 -4.78337 56.5634 21.8833C49.3634 -4.78337 67.3634 -4.78337 110.563 21.8833C103.363 -4.78337 121.363 -4.78337 164.563 21.8833C157.363 -4.78337 175.363 -4.78337 218.563 21.8833C211.363 -4.78337 229.363 -4.78337 272.563 21.8833C265.363 -4.78337 283.363 -4.78337 326.563 21.8833C319.363 -4.78337 337.363 -4.78337 380.563 21.8833C373.363 -4.78337 391.363 -4.78337 434.563 21.8833C427.363 -4.78337 445.363 -4.78337 488.563 21.8833C481.363 -4.78337 499.363 -4.78337 542.563 21.8833" stroke="#FC531C" stroke-width="2"/>
</svg>
