<svg width="79" height="77" viewBox="0 0 79 77" fill="none" xmlns="http://www.w3.org/2000/svg">
<path fill-rule="evenodd" clip-rule="evenodd" d="M42.8993 12.0774L79.0002 42.5523H67.5878V70.6311H18.8151V42.5523H7.18652L42.8993 12.0774ZM42.9045 14.554L12.4685 40.526H20.4928V68.6048H65.9101V40.526H73.6712L42.9045 14.554Z" fill="#606060"/>
<path fill-rule="evenodd" clip-rule="evenodd" d="M0.712194 42.2483L47.2241 4.35646L47.4922 4.83643L0.980237 42.7283L0.712194 42.2483Z" fill="#606060"/>
<path fill-rule="evenodd" clip-rule="evenodd" d="M42.902 76.9995L42.902 -1.24643e-07L43.3813 0L43.3813 76.9995L42.902 76.9995Z" fill="#606060"/>
<path fill-rule="evenodd" clip-rule="evenodd" d="M0.00148392 48.0524H16.7783V48.6313H0.00148392V48.0524Z" fill="#606060"/>
<path fill-rule="evenodd" clip-rule="evenodd" d="M5.87289 34.7361L5.87289 77H5.39355L5.39355 34.7361H5.87289Z" fill="#606060"/>
<path fill-rule="evenodd" clip-rule="evenodd" d="M12.7039 45.1576L12.7039 76.9995H12.2246L12.2246 45.1576H12.7039Z" fill="#606060"/>
<path fill-rule="evenodd" clip-rule="evenodd" d="M0.00226974 73.9579L46.978 74.2519L46.9755 74.8308L-0.000217438 74.5368L0.00226974 73.9579Z" fill="#606060"/>
<path d="M45.0596 65.9994V19.105L68.7868 39.2224H63.5394V65.9994H45.0596Z" fill="#FC531C"/>
</svg>
